<?xml version="1.0" encoding="UTF-8"?>
<svg xmlns="http://www.w3.org/2000/svg" xmlns:xlink="http://www.w3.org/1999/xlink" width="32px" height="32px" viewBox="0 0 32 32" version="1.1">
<g id="surface1">
<path style="fill-rule:nonzero;fill:rgb(100%,66.666669%,0%);fill-opacity:1;stroke-width:2;stroke-linecap:butt;stroke-linejoin:miter;stroke:rgb(100%,66.666669%,0%);stroke-opacity:1;stroke-miterlimit:10;" d="M 15.550781 1.460938 C 10.730469 1.460938 6.828125 5.371094 6.828125 10.179688 C 6.828125 11.558594 7.148438 12.871094 7.730469 14.03125 L 7.820312 14.210938 L 15.558594 29.171875 L 23.230469 14.328125 L 23.269531 14.238281 C 23.910156 13.03125 24.28125 11.640625 24.28125 10.171875 C 24.28125 5.359375 20.378906 1.449219 15.570312 1.449219 Z M 17.898438 9.671875 C 17.671875 9.671875 17.449219 9.621094 17.261719 9.539062 L 14.050781 12.761719 L 16.121094 12.761719 C 16.898438 12.761719 17.148438 12.238281 17.148438 12.238281 L 16.628906 11.71875 L 18.699219 11.71875 C 19.21875 11.71875 18.960938 11.980469 18.699219 12.238281 C 18.011719 12.929688 17.160156 13.800781 16.109375 13.800781 L 12.488281 13.800781 C 12.230469 13.800781 11.96875 13.539062 11.96875 13.289062 L 11.96875 9.671875 C 11.96875 8.621094 11.96875 8.640625 13.53125 7.078125 C 13.789062 6.820312 14.039062 6.570312 14.039062 7.078125 L 14.039062 9.148438 L 13.53125 8.640625 C 13.53125 8.640625 13.011719 8.898438 13.011719 9.671875 L 13.011719 11.738281 L 16.210938 8.519531 C 16.128906 8.320312 16.078125 8.089844 16.078125 7.878906 C 16.078125 6.878906 16.898438 6.070312 17.890625 6.070312 C 18.878906 6.070312 19.699219 6.890625 19.699219 7.878906 C 19.699219 8.871094 18.878906 9.691406 17.890625 9.691406 C 17.890625 9.691406 17.921875 9.691406 17.921875 9.691406 Z M 17.898438 9.671875 "/>
<path style=" stroke:none;fill-rule:nonzero;fill:rgb(100%,100%,100%);fill-opacity:1;" d="M 21.851562 10.390625 C 21.851562 7.128906 19.199219 4.488281 15.949219 4.488281 C 12.699219 4.488281 10.050781 7.140625 10.050781 10.390625 C 10.050781 13.640625 12.699219 16.289062 15.949219 16.289062 C 19.199219 16.289062 21.851562 13.640625 21.851562 10.390625 Z M 21.851562 10.390625 "/>
<path style=" stroke:none;fill-rule:nonzero;fill:rgb(0%,0%,0%);fill-opacity:1;" d="M 15.550781 1.460938 C 10.730469 1.460938 6.828125 5.371094 6.828125 10.179688 C 6.828125 11.558594 7.148438 12.871094 7.730469 14.03125 L 7.820312 14.210938 L 15.558594 29.171875 L 23.230469 14.328125 L 23.269531 14.238281 C 23.910156 13.03125 24.28125 11.640625 24.28125 10.171875 C 24.28125 5.359375 20.378906 1.449219 15.570312 1.449219 Z M 17.898438 9.671875 C 17.671875 9.671875 17.449219 9.621094 17.261719 9.539062 L 14.050781 12.761719 L 16.121094 12.761719 C 16.898438 12.761719 17.148438 12.238281 17.148438 12.238281 L 16.628906 11.71875 L 18.699219 11.71875 C 19.21875 11.71875 18.960938 11.980469 18.699219 12.238281 C 18.011719 12.929688 17.160156 13.800781 16.109375 13.800781 L 12.488281 13.800781 C 12.230469 13.800781 11.96875 13.539062 11.96875 13.289062 L 11.96875 9.671875 C 11.96875 8.621094 11.96875 8.640625 13.53125 7.078125 C 13.789062 6.820312 14.039062 6.570312 14.039062 7.078125 L 14.039062 9.148438 L 13.53125 8.640625 C 13.53125 8.640625 13.011719 8.898438 13.011719 9.671875 L 13.011719 11.738281 L 16.210938 8.519531 C 16.128906 8.320312 16.078125 8.089844 16.078125 7.878906 C 16.078125 6.878906 16.898438 6.070312 17.890625 6.070312 C 18.878906 6.070312 19.699219 6.890625 19.699219 7.878906 C 19.699219 8.871094 18.878906 9.691406 17.890625 9.691406 C 17.890625 9.691406 17.921875 9.691406 17.921875 9.691406 Z M 17.898438 9.671875 "/>
<path style=" stroke:none;fill-rule:nonzero;fill:rgb(0%,0%,0%);fill-opacity:1;" d="M 18.671875 7.859375 C 18.671875 7.429688 18.320312 7.078125 17.890625 7.078125 C 17.460938 7.078125 17.109375 7.429688 17.109375 7.859375 C 17.109375 8.289062 17.460938 8.640625 17.890625 8.640625 C 18.320312 8.640625 18.671875 8.289062 18.671875 7.859375 Z M 18.671875 7.859375 "/>
<path style=" stroke:none;fill-rule:nonzero;fill:rgb(100%,66.666669%,0%);fill-opacity:1;" d="M 20.929688 19.371094 L 10.28125 19.390625 L 8.96875 17.089844 L 22.179688 17.089844 Z M 20.929688 19.371094 "/>
</g>
</svg>
