<?xml version="1.0" encoding="UTF-8"?>
<svg xmlns="http://www.w3.org/2000/svg" xmlns:xlink="http://www.w3.org/1999/xlink" width="32px" height="32px" viewBox="0 0 32 32" version="1.1">
<g id="surface1">
  <path style="stroke:#32CD32;stroke-width:2;fill-rule:nonzero;fill:rgb(0%,0%,0%);fill-opacity:1;" d="M 16.027344 1.457031 C 10.949219 1.457031 6.832031 5.574219 6.832031 10.652344 C 6.832031 12.109375 7.171875 13.488281 7.777344 14.710938 L 7.867188 14.902344 L 16.027344 30.683594 L 24.117188 15.035156 L 24.160156 14.941406 C 24.839844 13.660156 25.222656 12.199219 25.222656 10.648438 C 25.222656 5.574219 21.105469 1.457031 16.027344 1.457031 Z" />
  <path style=" stroke:none;fill-rule:nonzero;fill:rgb(100%,100%,100%);fill-opacity:1;" d="M 22.671875 10.875 C 22.671875 7.4375 19.886719 4.652344 16.449219 4.652344 C 13.015625 4.652344 10.226562 7.4375 10.226562 10.875 C 10.226562 14.3125 13.015625 17.097656 16.449219 17.097656 C 19.886719 17.097656 22.671875 14.3125 22.671875 10.875 Z M 22.671875 10.875 "/>
  <path style=" stroke:none;fill-rule:nonzero;fill:rgb(0%,0%,0%);fill-opacity:1;" d="M 16.027344 1.457031 C 10.949219 1.457031 6.832031 5.574219 6.832031 10.652344 C 6.832031 12.109375 7.171875 13.488281 7.777344 14.710938 L 7.867188 14.902344 L 16.027344 30.683594 L 24.117188 15.035156 L 24.160156 14.941406 C 24.839844 13.660156 25.222656 12.199219 25.222656 10.648438 C 25.222656 5.574219 21.105469 1.457031 16.027344 1.457031 Z M 18.5 10.125 C 18.257812 10.125 18.027344 10.070312 17.816406 9.988281 L 14.429688 13.390625 C 14.976562 13.390625 16.070312 13.390625 16.613281 13.390625 C 17.433594 13.390625 17.707031 12.84375 17.707031 12.84375 L 17.160156 12.296875 L 19.34375 12.296875 C 19.890625 12.304688 19.617188 12.570312 19.34375 12.84375 C 18.617188 13.574219 17.722656 14.480469 16.613281 14.480469 L 12.792969 14.480469 C 12.519531 14.480469 12.246094 14.207031 12.246094 13.9375 L 12.246094 10.113281 C 12.246094 9.007812 12.246094 9.023438 13.886719 7.382812 C 14.160156 7.109375 14.429688 6.839844 14.429688 7.382812 C 14.429688 8.113281 14.429688 9.566406 14.429688 9.566406 L 13.886719 9.023438 C 13.886719 9.023438 13.339844 9.296875 13.339844 10.113281 C 13.339844 10.660156 13.339844 11.753906 13.339844 12.296875 L 16.722656 8.898438 C 16.644531 8.6875 16.585938 8.453125 16.585938 8.214844 C 16.585938 7.160156 17.441406 6.304688 18.496094 6.304688 C 19.554688 6.304688 20.410156 7.160156 20.410156 8.214844 C 20.410156 9.269531 19.554688 10.125 18.5 10.125 Z M 18.5 10.125 "/>
  <path style=" stroke:none;fill-rule:nonzero;fill:rgb(0%,0%,0%);fill-opacity:1;" d="M 19.316406 8.214844 C 19.316406 7.761719 18.949219 7.394531 18.5 7.394531 C 18.046875 7.394531 17.679688 7.761719 17.679688 8.214844 C 17.679688 8.664062 18.046875 9.03125 18.5 9.03125 C 18.949219 9.03125 19.316406 8.664062 19.316406 8.214844 Z M 19.316406 8.214844 "/>
</g>
</svg>
