<?xml version="1.0" encoding="UTF-8"?>
<svg xmlns="http://www.w3.org/2000/svg" xmlns:xlink="http://www.w3.org/1999/xlink" width="32px" height="32px" viewBox="0 0 32 32" version="1.1">
<g id="surface1">
<path style=" stroke:none;fill-rule:nonzero;fill:rgb(100%,100%,100%);fill-opacity:1;" d="M 22.671875 10.878906 C 22.671875 7.441406 19.878906 4.660156 16.449219 4.660156 C 13.019531 4.660156 10.230469 7.449219 10.230469 10.878906 C 10.230469 14.308594 13.019531 17.101562 16.449219 17.101562 C 19.878906 17.101562 22.671875 14.308594 22.671875 10.878906 Z M 22.671875 10.878906 "/>
<path style=" stroke:none;fill-rule:nonzero;fill:rgb(0%,0%,0%);fill-opacity:1;" d="M 16.03125 1.460938 C 10.949219 1.460938 6.828125 5.578125 6.828125 10.660156 C 6.828125 12.121094 7.171875 13.5 7.78125 14.71875 L 7.871094 14.910156 L 16.03125 30.691406 L 24.121094 15.039062 L 24.160156 14.949219 C 24.839844 13.671875 25.21875 12.210938 25.21875 10.660156 C 25.21875 5.589844 21.101562 1.46875 16.019531 1.46875 L 16.03125 1.46875 Z M 18.5 10.121094 C 18.261719 10.121094 18.03125 10.070312 17.820312 9.980469 L 14.429688 13.378906 L 16.609375 13.378906 C 17.429688 13.378906 17.699219 12.828125 17.699219 12.828125 L 17.148438 12.28125 L 19.328125 12.28125 C 19.878906 12.28125 19.601562 12.550781 19.328125 12.828125 C 18.601562 13.558594 17.710938 14.46875 16.601562 14.46875 L 12.78125 14.46875 C 12.511719 14.46875 12.230469 14.199219 12.230469 13.929688 L 12.230469 10.109375 C 12.230469 9 12.230469 9.019531 13.871094 7.378906 C 14.140625 7.109375 14.410156 6.839844 14.410156 7.378906 L 14.410156 9.558594 L 13.871094 9.019531 C 13.871094 9.019531 13.320312 9.289062 13.320312 10.109375 L 13.320312 12.289062 L 16.699219 8.890625 C 16.621094 8.679688 16.558594 8.441406 16.558594 8.210938 C 16.558594 7.160156 17.421875 6.300781 18.46875 6.300781 C 19.519531 6.300781 20.378906 7.160156 20.378906 8.210938 C 20.378906 9.261719 19.519531 10.121094 18.46875 10.121094 C 18.46875 10.121094 18.5 10.121094 18.5 10.121094 Z M 18.5 10.121094 "/>
<path style=" stroke:none;fill-rule:nonzero;fill:rgb(0%,0%,0%);fill-opacity:1;" d="M 19.320312 8.210938 C 19.320312 7.761719 18.949219 7.390625 18.5 7.390625 C 18.050781 7.390625 17.679688 7.761719 17.679688 8.210938 C 17.679688 8.660156 18.050781 9.03125 18.5 9.03125 C 18.949219 9.03125 19.320312 8.660156 19.320312 8.210938 Z M 19.320312 8.210938 "/>
<path style=" stroke:none;fill-rule:nonzero;fill:rgb(100%,66.666669%,0%);fill-opacity:1;" d="M 21.378906 20.351562 L 10.691406 20.371094 L 9.441406 17.941406 L 22.628906 17.941406 Z M 21.378906 20.351562 "/>
</g>
</svg>
