<?xml version="1.0" encoding="UTF-8"?>
<svg id="Laag_1" xmlns="http://www.w3.org/2000/svg" version="1.1" viewBox="0 0 800 800">
  <!-- Generator: Adobe Illustrator 29.5.1, SVG Export Plug-In . SVG Version: 2.1.0 Build 141)  -->
  <defs>
    <style>
      .st0 {
        fill: #fff;
        stroke: #fff;
        stroke-miterlimit: 57.14;
        stroke-width: .25px;
      }

      .st1 {
        fill: #3498db;
      }
    </style>
  </defs>
  <rect class="st0" x="259.93" y="185.46" width="298.31" height="431.6"/>
  <g id="SVGRepo_iconCarrier">
    <path class="st1" d="M400,741.52c186.5,0,341.52-154.69,341.52-341.52S586.16,58.48,399.66,58.48,58.48,213.5,58.48,400s154.69,341.52,341.52,341.52ZM393.64,472.66c-18.42,0-28.13-9.37-28.13-27.45v-4.69c0-34.49,18.42-53.24,43.86-70.65,31.14-21.09,45.53-33.15,45.53-57.25,0-26.45-20.76-44.53-52.9-44.53-23.1,0-40.85,11.72-51.56,30.8-11.38,13.39-14.73,23.77-34.82,23.77-11.38,0-24.11-8.37-24.11-24.11,0-6.03,1.34-11.72,3.01-17.41,9.04-32.48,49.55-60.6,109.82-60.6s111.83,31.14,111.83,89.4c0,42.19-24.44,62.28-58.59,85.38-24.11,16.41-36.16,28.46-36.16,48.21v4.35c0,13.73-10.38,24.78-27.79,24.78ZM394.64,573.44c-19.08,0-37.5-15.4-37.5-36.16s18.08-36.16,37.5-36.16,37.5,15.07,37.5,36.16-18.08,36.16-37.5,36.16Z"/>
  </g>
</svg>