<svg xmlns:xlink="http://www.w3.org/1999/xlink" xmlns="http://www.w3.org/2000/svg" viewBox="1247.376311844078 450 530.7346326836582 591" version="1.1" style="max-height: 500px" width="530.7346326836582" height="591"><defs><clipPath id="roundedClip"><rect y="0" x="0" width="2000" ry="300" rx="300" height="1500"/></clipPath></defs><rect y="0" x="0" width="2000" ry="300" rx="300" height="1500" fill="none"/><g clip-path="url(#roundedClip)">
<g><path style="opacity:1" fill="none" d="M -0.5,-0.5 C 666.167,-0.5 1332.83,-0.5 1999.5,-0.5C 1999.5,499.5 1999.5,999.5 1999.5,1499.5C 1332.83,1499.5 666.167,1499.5 -0.5,1499.5C -0.5,999.5 -0.5,499.5 -0.5,-0.5 Z"/></g>
<g><path style="opacity:1" fill="#f8f9fa" d="M 1449.5,529.5 C 1454.17,529.5 1458.83,529.5 1463.5,529.5C 1463.5,534.167 1463.5,538.833 1463.5,543.5C 1495.83,543.5 1528.17,543.5 1560.5,543.5C 1560.5,538.833 1560.5,534.167 1560.5,529.5C 1565.17,529.5 1569.83,529.5 1574.5,529.5C 1574.5,543.167 1574.5,556.833 1574.5,570.5C 1570.17,570.5 1565.83,570.5 1561.5,570.5C 1561.82,565.968 1561.48,561.634 1560.5,557.5C 1551.5,557.5 1542.5,557.5 1533.5,557.5C 1532.5,571.323 1532.17,585.323 1532.5,599.5C 1541.83,599.5 1551.17,599.5 1560.5,599.5C 1560.5,622.833 1560.5,646.167 1560.5,669.5C 1568.14,669.486 1572.81,673.153 1574.5,680.5C 1574.5,714.167 1574.5,747.833 1574.5,781.5C 1578.5,781.5 1582.5,781.5 1586.5,781.5C 1601.78,783.944 1611.61,792.611 1616,807.5C 1616.5,812.489 1616.67,817.489 1616.5,822.5C 1607.17,822.5 1597.83,822.5 1588.5,822.5C 1588.5,827.5 1588.5,832.5 1588.5,837.5C 1591.5,837.5 1594.5,837.5 1597.5,837.5C 1608.9,839.732 1616.4,846.399 1620,857.5C 1623,872.5 1626,887.5 1629,902.5C 1629.41,902.957 1629.91,903.291 1630.5,903.5C 1640.74,893.698 1652.74,890.532 1666.5,894C 1673.5,897.497 1680.16,901.497 1686.5,906C 1690.5,906.667 1694.5,906.667 1698.5,906C 1703.77,903.059 1708.77,899.726 1713.5,896C 1718.25,893.73 1723.25,892.563 1728.5,892.5C 1728.5,897.167 1728.5,901.833 1728.5,906.5C 1721.79,907.19 1716.12,910.024 1711.5,915C 1695.58,923.675 1680.91,922.008 1667.5,910C 1662.52,907.087 1657.18,906.087 1651.5,907C 1644.29,912.107 1636.62,916.44 1628.5,920C 1621.75,920.877 1615.08,920.544 1608.5,919C 1603.23,916.059 1598.23,912.726 1593.5,909C 1587.95,906.263 1582.28,905.93 1576.5,908C 1570.46,913.019 1563.8,917.019 1556.5,920C 1549.75,920.877 1543.08,920.544 1536.5,919C 1531.56,916.394 1526.9,913.394 1522.5,910C 1516.03,905.763 1509.37,905.43 1502.5,909C 1485.41,923.902 1468.08,924.236 1450.5,910C 1445.6,906.775 1440.27,905.775 1434.5,907C 1428.16,911.503 1421.5,915.503 1414.5,919C 1406.06,921.202 1397.73,920.869 1389.5,918C 1384,914.084 1378.34,910.418 1372.5,907C 1369.17,906.333 1365.83,906.333 1362.5,907C 1356.5,910.667 1350.5,914.333 1344.5,918C 1335.53,921.295 1326.53,921.295 1317.5,918C 1312.67,914.419 1307.67,911.085 1302.5,908C 1300.19,907.503 1297.86,907.337 1295.5,907.5C 1295.5,902.5 1295.5,897.5 1295.5,892.5C 1298.87,892.674 1302.21,893.174 1305.5,894C 1312.5,897.497 1319.16,901.497 1325.5,906C 1329.5,906.667 1333.5,906.667 1337.5,906C 1342.77,903.059 1347.77,899.726 1352.5,896C 1368.24,889.932 1382.24,892.766 1394.5,904.5C 1397.76,887.034 1401.59,869.7 1406,852.5C 1410.44,844.198 1417.28,839.198 1426.5,837.5C 1429.5,837.5 1432.5,837.5 1435.5,837.5C 1435.5,832.5 1435.5,827.5 1435.5,822.5C 1426.17,822.5 1416.83,822.5 1407.5,822.5C 1405.35,805.97 1411.35,793.47 1425.5,785C 1429.01,783.241 1432.68,782.074 1436.5,781.5C 1440.83,781.5 1445.17,781.5 1449.5,781.5C 1449.5,747.833 1449.5,714.167 1449.5,680.5C 1450.83,674.5 1454.5,670.833 1460.5,669.5C 1461.5,669.5 1462.5,669.5 1463.5,669.5C 1463.5,646.167 1463.5,622.833 1463.5,599.5C 1472.83,599.5 1482.17,599.5 1491.5,599.5C 1491.83,585.323 1491.5,571.323 1490.5,557.5C 1481.5,557.5 1472.5,557.5 1463.5,557.5C 1462.52,561.634 1462.18,565.968 1462.5,570.5C 1458.17,570.5 1453.83,570.5 1449.5,570.5C 1449.5,556.833 1449.5,543.167 1449.5,529.5 Z"/></g>
<g><path style="opacity:1" fill="#f8f9fa" d="M 713.5,548.5 C 714.833,548.5 716.167,548.5 717.5,548.5C 717.167,572.176 717.5,595.843 718.5,619.5C 719.107,619.376 719.44,619.043 719.5,618.5C 728.801,612.35 738.801,607.517 749.5,604C 774.087,598.349 787.921,607.849 791,632.5C 791.5,661.165 791.667,689.831 791.5,718.5C 785.5,718.5 779.5,718.5 773.5,718.5C 773.667,689.831 773.5,661.165 773,632.5C 771.242,623.074 765.575,618.408 756,618.5C 742.505,621.079 730.172,626.413 719,634.5C 718.5,662.498 718.333,690.498 718.5,718.5C 712.5,718.5 706.5,718.5 700.5,718.5C 700.5,662.167 700.5,605.833 700.5,549.5C 704.857,549.414 709.19,549.08 713.5,548.5 Z"/></g>
<g><path style="opacity:1" fill="none" d="M 713.5,548.5 C 714.919,547.549 716.585,547.216 718.5,547.5C 718.169,571.339 718.502,595.006 719.5,618.5C 719.44,619.043 719.107,619.376 718.5,619.5C 717.5,595.843 717.167,572.176 717.5,548.5C 716.167,548.5 714.833,548.5 713.5,548.5 Z"/></g>
<g><path style="opacity:1" fill="none" d="M 1490.5,557.5 C 1491.5,571.323 1491.83,585.323 1491.5,599.5C 1482.17,599.5 1472.83,599.5 1463.5,599.5C 1472.32,598.507 1481.32,598.173 1490.5,598.5C 1490.5,584.833 1490.5,571.167 1490.5,557.5 Z"/></g>
<g><path style="opacity:1" fill="none" d="M 1505.5,557.5 C 1505.5,571.167 1505.5,584.833 1505.5,598.5C 1509.83,598.5 1514.17,598.5 1518.5,598.5C 1518.5,584.833 1518.5,571.167 1518.5,557.5C 1519.5,571.323 1519.83,585.323 1519.5,599.5C 1514.5,599.5 1509.5,599.5 1504.5,599.5C 1504.17,585.323 1504.5,571.323 1505.5,557.5 Z"/></g>
<g><path style="opacity:1" fill="none" d="M 1505.5,557.5 C 1509.83,557.5 1514.17,557.5 1518.5,557.5C 1518.5,571.167 1518.5,584.833 1518.5,598.5C 1514.17,598.5 1509.83,598.5 1505.5,598.5C 1505.5,584.833 1505.5,571.167 1505.5,557.5 Z"/></g>
<g><path style="opacity:1" fill="none" d="M 1533.5,557.5 C 1533.5,571.167 1533.5,584.833 1533.5,598.5C 1542.68,598.173 1551.68,598.507 1560.5,599.5C 1551.17,599.5 1541.83,599.5 1532.5,599.5C 1532.17,585.323 1532.5,571.323 1533.5,557.5 Z"/></g>
<g><path style="opacity:1" fill="#f8f9fa" d="M 911.5,562.5 C 927.705,562.32 943.705,563.987 959.5,567.5C 958.607,573.189 957.607,578.856 956.5,584.5C 955.5,584.833 954.5,585.167 953.5,585.5C 938.031,581.792 922.365,580.626 906.5,582C 893.494,583.999 887.661,591.499 889,604.5C 890.472,610.984 893.972,616.151 899.5,620C 912.901,628.368 926.901,635.701 941.5,642C 951.933,647.467 960.1,655.301 966,665.5C 973.077,694.11 962.244,711.943 933.5,719C 911.722,723.427 890.389,721.927 869.5,714.5C 869.342,708.763 870.342,703.096 872.5,697.5C 873,697.167 873.5,696.833 874,696.5C 896.984,705.995 919.818,705.828 942.5,696C 952.474,684.439 951.474,673.773 939.5,664C 922.167,654.333 904.833,644.667 887.5,635C 868.358,619.607 864.525,601.107 876,579.5C 885.778,569.36 897.611,563.693 911.5,562.5 Z"/></g>
<g><path style="opacity:1" fill="#f8f9fa" d="M 360.5,684.5 C 360.783,685.289 361.283,685.956 362,686.5C 362.812,682.311 362.645,678.311 361.5,674.5C 361.5,671.833 361.5,669.167 361.5,666.5C 361.5,632.833 361.5,599.167 361.5,565.5C 367.167,565.5 372.833,565.5 378.5,565.5C 378.5,616.5 378.5,667.5 378.5,718.5C 372.463,718.829 366.463,718.496 360.5,717.5C 334.196,677.364 307.696,637.364 281,597.5C 280.502,600.817 280.335,604.15 280.5,607.5C 280.5,644.167 280.5,680.833 280.5,717.5C 274.833,717.5 269.167,717.5 263.5,717.5C 263.5,666.5 263.5,615.5 263.5,564.5C 269.758,564.19 275.924,564.524 282,565.5C 308.177,605.195 334.344,644.862 360.5,684.5 Z"/></g>
<g><path style="opacity:1" fill="none" d="M 378.5,718.5 C 378.5,667.5 378.5,616.5 378.5,565.5C 372.833,565.5 367.167,565.5 361.5,565.5C 361.5,599.167 361.5,632.833 361.5,666.5C 360.502,632.671 360.168,598.671 360.5,564.5C 366.833,564.5 373.167,564.5 379.5,564.5C 379.832,616.003 379.499,667.336 378.5,718.5 Z"/></g>
<g><path style="opacity:1" fill="none" d="M 1449.5,529.5 C 1449.5,543.167 1449.5,556.833 1449.5,570.5C 1453.83,570.5 1458.17,570.5 1462.5,570.5C 1462.18,565.968 1462.52,561.634 1463.5,557.5C 1463.5,562.167 1463.5,566.833 1463.5,571.5C 1458.5,571.5 1453.5,571.5 1448.5,571.5C 1448.17,557.323 1448.5,543.323 1449.5,529.5 Z"/></g>
<g><path style="opacity:1" fill="none" d="M 1574.5,529.5 C 1575.5,543.323 1575.83,557.323 1575.5,571.5C 1570.5,571.5 1565.5,571.5 1560.5,571.5C 1560.5,566.833 1560.5,562.167 1560.5,557.5C 1561.48,561.634 1561.82,565.968 1561.5,570.5C 1565.83,570.5 1570.17,570.5 1574.5,570.5C 1574.5,556.833 1574.5,543.167 1574.5,529.5 Z"/></g>
<g><path style="opacity:1" fill="#f8f9fa" d="M 644.5,604.5 C 654.987,605.494 665.654,605.828 676.5,605.5C 676.5,610.167 676.5,614.833 676.5,619.5C 665.654,619.172 654.987,619.506 644.5,620.5C 644.333,644.502 644.5,668.502 645,692.5C 645.546,704.379 651.379,708.212 662.5,704C 666.368,702.989 670.034,701.489 673.5,699.5C 676.153,703.257 678.153,707.423 679.5,712C 677.108,714.711 674.108,716.711 670.5,718C 658.944,722.976 647.611,722.643 636.5,717C 632,713.171 629.167,708.338 628,702.5C 626.552,674.87 626.052,647.204 626.5,619.5C 619.5,619.5 612.5,619.5 605.5,619.5C 605.5,614.833 605.5,610.167 605.5,605.5C 612.5,605.5 619.5,605.5 626.5,605.5C 626.5,594.833 626.5,584.167 626.5,573.5C 632.456,572.506 638.456,571.839 644.5,571.5C 644.5,582.5 644.5,593.5 644.5,604.5 Z"/></g>
<g><path style="opacity:1" fill="none" d="M 1463.5,599.5 C 1463.5,622.833 1463.5,646.167 1463.5,669.5C 1462.5,669.5 1461.5,669.5 1460.5,669.5C 1462.15,646.223 1463.15,622.89 1463.5,599.5 Z"/></g>
<g><path style="opacity:1" fill="#f8f9fa" d="M 1609.5,600.5 C 1610.5,600.414 1611.33,600.748 1612,601.5C 1614.16,605.327 1615.5,609.327 1616,613.5C 1608.13,617.1 1600.13,620.434 1592,623.5C 1589.97,620.787 1588.3,617.787 1587,614.5C 1586.22,613.056 1586.39,611.723 1587.5,610.5C 1595.02,607.338 1602.35,604.004 1609.5,600.5 Z"/></g>
<g><path style="opacity:1" fill="#f8f9fa" d="M 449.5,603.5 C 466.023,601.301 481.356,604.467 495.5,613C 514.285,630.608 520.785,652.108 515,677.5C 506.142,708.869 485.308,723.369 452.5,721C 425.206,715.362 410.04,698.528 407,670.5C 403.589,636.592 417.756,614.259 449.5,603.5 Z"/></g>
<g><path style="opacity:1" fill="#f8f9fa" d="M 581.5,602.5 C 587.181,602.635 592.848,602.968 598.5,603.5C 596.96,609.454 595.627,615.454 594.5,621.5C 591.334,621.234 588.167,620.901 585,620.5C 578.324,621.513 572.991,624.847 569,630.5C 566.333,634.5 563.667,638.5 561,642.5C 560.5,667.831 560.333,693.164 560.5,718.5C 554.5,718.5 548.5,718.5 542.5,718.5C 542.808,681.143 542.475,643.809 541.5,606.5C 547.181,606.365 552.848,606.032 558.5,605.5C 559.109,610.812 559.609,616.146 560,621.5C 565.849,613.473 573.016,607.139 581.5,602.5 Z"/></g>
<g><path style="opacity:1" fill="#f8f9fa" d="M 1026.5,603.5 C 1055.9,599.415 1074.07,611.749 1081,640.5C 1083.75,649.411 1082.92,657.911 1078.5,666C 1054.5,666.5 1030.5,666.667 1006.5,666.5C 1006.45,691.123 1018.61,704.123 1043,705.5C 1053.11,705.287 1062.95,703.62 1072.5,700.5C 1074.37,704.818 1075.71,709.318 1076.5,714C 1075.56,715.477 1074.22,716.477 1072.5,717C 1056.7,721.396 1040.7,722.396 1024.5,720C 1000.43,712.912 987.926,696.745 987,671.5C 983.701,649.688 989.534,630.854 1004.5,615C 1011.21,609.812 1018.55,605.979 1026.5,603.5 Z"/></g>
<g><path style="opacity:1" fill="#f8f9fa" d="M 1130.5,603.5 C 1142.56,603.085 1154.56,603.585 1166.5,605C 1178.57,609.745 1185.41,618.579 1187,631.5C 1187.28,660.508 1187.78,689.508 1188.5,718.5C 1182.86,719.22 1177.2,719.553 1171.5,719.5C 1170.96,716.187 1170.46,712.854 1170,709.5C 1169.59,709.043 1169.09,708.709 1168.5,708.5C 1156.31,716.453 1142.97,720.787 1128.5,721.5C 1103.93,719.402 1093.76,706.069 1098,681.5C 1102.96,670.543 1111.12,663.043 1122.5,659C 1137.75,653.991 1153.42,651.825 1169.5,652.5C 1169.85,645.094 1169.35,637.761 1168,630.5C 1163.28,621.522 1155.78,617.522 1145.5,618.5C 1134.95,618.959 1124.62,620.626 1114.5,623.5C 1112.53,618.39 1111.2,613.056 1110.5,607.5C 1117.33,606.366 1124,605.032 1130.5,603.5 Z"/></g>
<g><path style="opacity:1" fill="#f8f9fa" d="M 1410.5,604.5 C 1419.14,607.822 1427.47,611.655 1435.5,616C 1434.01,619.812 1432.67,623.645 1431.5,627.5C 1422.75,624.88 1414.25,621.546 1406,617.5C 1406.58,612.924 1408.08,608.59 1410.5,604.5 Z"/></g>
<g><path style="opacity:1" fill="none" d="M 1477.5,613.5 C 1500.5,613.5 1523.5,613.5 1546.5,613.5C 1546.5,631.833 1546.5,650.167 1546.5,668.5C 1542.17,668.5 1537.83,668.5 1533.5,668.5C 1533.83,654.656 1533.5,640.99 1532.5,627.5C 1518.83,627.5 1505.17,627.5 1491.5,627.5C 1490.5,640.99 1490.17,654.656 1490.5,668.5C 1486.17,668.5 1481.83,668.5 1477.5,668.5C 1477.5,650.167 1477.5,631.833 1477.5,613.5 Z"/></g>
<g><path style="opacity:1" fill="none" d="M 454.5,618.5 C 476.518,616.739 490.352,626.406 496,647.5C 496.667,656.5 496.667,665.5 496,674.5C 491.963,698.458 477.796,708.625 453.5,705C 439.891,701.058 431.391,692.225 428,678.5C 426.495,668.212 426.162,657.878 427,647.5C 429.949,631.722 439.116,622.055 454.5,618.5 Z"/></g>
<g><path style="opacity:1" fill="none" d="M 644.5,604.5 C 655.5,604.5 666.5,604.5 677.5,604.5C 677.5,609.833 677.5,615.167 677.5,620.5C 666.5,620.5 655.5,620.5 644.5,620.5C 654.987,619.506 665.654,619.172 676.5,619.5C 676.5,614.833 676.5,610.167 676.5,605.5C 665.654,605.828 654.987,605.494 644.5,604.5 Z"/></g>
<g><path style="opacity:1" fill="none" d="M 1063.5,651.5 C 1044.83,651.5 1026.17,651.5 1007.5,651.5C 1007.5,650.167 1007.5,648.833 1007.5,647.5C 1010.26,630.571 1020.09,620.905 1037,618.5C 1048.96,619.111 1056.96,625.111 1061,636.5C 1061.97,641.489 1062.81,646.489 1063.5,651.5 Z"/></g>
<g><path style="opacity:1" fill="none" d="M 1477.5,613.5 C 1477.5,631.833 1477.5,650.167 1477.5,668.5C 1481.83,668.5 1486.17,668.5 1490.5,668.5C 1490.17,654.656 1490.5,640.99 1491.5,627.5C 1491.5,641.5 1491.5,655.5 1491.5,669.5C 1486.5,669.5 1481.5,669.5 1476.5,669.5C 1476.17,650.659 1476.5,631.993 1477.5,613.5 Z"/></g>
<g><path style="opacity:1" fill="none" d="M 1546.5,613.5 C 1547.5,631.993 1547.83,650.659 1547.5,669.5C 1542.5,669.5 1537.5,669.5 1532.5,669.5C 1532.5,655.5 1532.5,641.5 1532.5,627.5C 1533.5,640.99 1533.83,654.656 1533.5,668.5C 1537.83,668.5 1542.17,668.5 1546.5,668.5C 1546.5,650.167 1546.5,631.833 1546.5,613.5 Z"/></g>
<g><path style="opacity:1" fill="none" d="M 280.5,607.5 C 281.498,644.33 281.832,681.33 281.5,718.5C 275.31,718.823 269.31,718.49 263.5,717.5C 269.167,717.5 274.833,717.5 280.5,717.5C 280.5,680.833 280.5,644.167 280.5,607.5 Z"/></g>
<g><path style="opacity:1" fill="#f8f9fa" d="M 1400.5,641.5 C 1409.5,641.5 1418.5,641.5 1427.5,641.5C 1427.5,645.833 1427.5,650.167 1427.5,654.5C 1418.5,654.5 1409.5,654.5 1400.5,654.5C 1400.5,650.167 1400.5,645.833 1400.5,641.5 Z"/></g>
<g><path style="opacity:1" fill="none" d="M 1505.5,641.5 C 1505.5,650.5 1505.5,659.5 1505.5,668.5C 1509.83,668.5 1514.17,668.5 1518.5,668.5C 1518.5,659.5 1518.5,650.5 1518.5,641.5C 1519.49,650.652 1519.83,659.985 1519.5,669.5C 1514.5,669.5 1509.5,669.5 1504.5,669.5C 1504.17,659.985 1504.51,650.652 1505.5,641.5 Z"/></g>
<g><path style="opacity:1" fill="none" d="M 1505.5,641.5 C 1509.83,641.5 1514.17,641.5 1518.5,641.5C 1518.5,650.5 1518.5,659.5 1518.5,668.5C 1514.17,668.5 1509.83,668.5 1505.5,668.5C 1505.5,659.5 1505.5,650.5 1505.5,641.5 Z"/></g>
<g><path style="opacity:1" fill="none" d="M 1007.5,647.5 C 1007.5,648.833 1007.5,650.167 1007.5,651.5C 1026.17,651.5 1044.83,651.5 1063.5,651.5C 1044.67,652.497 1025.67,652.83 1006.5,652.5C 1006.22,650.585 1006.55,648.919 1007.5,647.5 Z"/></g>
<g><path style="opacity:1" fill="none" d="M 1400.5,641.5 C 1409.65,640.506 1418.99,640.173 1428.5,640.5C 1428.5,645.5 1428.5,650.5 1428.5,655.5C 1418.99,655.827 1409.65,655.494 1400.5,654.5C 1409.5,654.5 1418.5,654.5 1427.5,654.5C 1427.5,650.167 1427.5,645.833 1427.5,641.5C 1418.5,641.5 1409.5,641.5 1400.5,641.5 Z"/></g>
<g><path style="opacity:1" fill="none" d="M 1623.5,641.5 C 1624.49,645.97 1624.82,650.637 1624.5,655.5C 1614.83,655.5 1605.17,655.5 1595.5,655.5C 1595.5,650.5 1595.5,645.5 1595.5,640.5C 1605.01,640.173 1614.35,640.506 1623.5,641.5 Z"/></g>
<g><path style="opacity:1" fill="#f8f9fa" d="M 1623.5,641.5 C 1623.5,645.833 1623.5,650.167 1623.5,654.5C 1614.5,654.5 1605.5,654.5 1596.5,654.5C 1596.5,650.167 1596.5,645.833 1596.5,641.5C 1605.5,641.5 1614.5,641.5 1623.5,641.5 Z"/></g>
<g><path style="opacity:1" fill="none" d="M 1157.5,666.5 C 1161.5,666.5 1165.5,666.5 1169.5,666.5C 1169.67,675.173 1169.5,683.84 1169,692.5C 1156.88,702.316 1143.05,706.482 1127.5,705C 1119.77,702.696 1116.1,697.53 1116.5,689.5C 1117.2,679.959 1122.2,673.792 1131.5,671C 1140.26,669.239 1148.93,667.739 1157.5,666.5 Z"/></g>
<g><path style="opacity:1" fill="#f8f9fa" d="M 1325.5,672.5 C 1329.42,674.743 1332.75,677.743 1335.5,681.5C 1305.87,715.349 1301.37,752.349 1322,792.5C 1325.92,798.924 1330.42,804.924 1335.5,810.5C 1332.83,813.833 1329.83,816.833 1326.5,819.5C 1305.63,799.235 1295.3,774.402 1295.5,745C 1296.03,716.794 1306.03,692.627 1325.5,672.5 Z"/></g>
<g><path style="opacity:1" fill="#f8f9fa" d="M 1696.5,672.5 C 1700.03,674.509 1703.19,677.176 1706,680.5C 1730.19,712.643 1735.19,747.643 1721,785.5C 1715.79,798.62 1708.12,809.954 1698,819.5C 1694.37,817.033 1691.2,814.033 1688.5,810.5C 1714.21,781.367 1720.71,748.367 1708,711.5C 1702.88,700.556 1696.38,690.556 1688.5,681.5C 1691.19,678.48 1693.86,675.48 1696.5,672.5 Z"/></g>
<g><path style="opacity:1" fill="#f8f9fa" d="M 1428.5,675.5 C 1429.68,675.281 1430.68,675.614 1431.5,676.5C 1433.6,680.322 1434.76,684.322 1435,688.5C 1427.02,692.419 1418.85,695.586 1410.5,698C 1407.8,694.066 1406.46,689.899 1406.5,685.5C 1414.02,682.338 1421.35,679.004 1428.5,675.5 Z"/></g>
<g><path style="opacity:1" fill="#f8f9fa" d="M 1590.5,679.5 C 1599.58,682.54 1608.24,686.374 1616.5,691C 1614.83,694.684 1613.16,698.351 1611.5,702C 1603.15,699.586 1594.98,696.419 1587,692.5C 1586.33,691.167 1586.33,689.833 1587,688.5C 1588.66,685.673 1589.83,682.673 1590.5,679.5 Z"/></g>
<g><path style="opacity:1" fill="none" d="M 361.5,674.5 C 362.645,678.311 362.812,682.311 362,686.5C 361.283,685.956 360.783,685.289 360.5,684.5C 361.479,681.375 361.813,678.042 361.5,674.5 Z"/></g>
<g><path style="opacity:1" fill="none" d="M 1449.5,680.5 C 1449.5,714.167 1449.5,747.833 1449.5,781.5C 1445.17,781.5 1440.83,781.5 1436.5,781.5C 1440.3,780.517 1444.3,780.183 1448.5,780.5C 1448.17,746.996 1448.5,713.662 1449.5,680.5 Z"/></g>
<g><path style="opacity:1" fill="none" d="M 1560.5,780.5 C 1556.17,780.5 1551.83,780.5 1547.5,780.5C 1547.83,752.662 1547.5,724.995 1546.5,697.5C 1523.5,697.5 1500.5,697.5 1477.5,697.5C 1476.5,724.995 1476.17,752.662 1476.5,780.5C 1472.17,780.5 1467.83,780.5 1463.5,780.5C 1463.5,748.167 1463.5,715.833 1463.5,683.5C 1495.83,683.5 1528.17,683.5 1560.5,683.5C 1560.5,715.833 1560.5,748.167 1560.5,780.5 Z"/></g>
<g><path style="opacity:1" fill="none" d="M 1574.5,680.5 C 1575.5,713.662 1575.83,746.996 1575.5,780.5C 1579.37,780.185 1583.04,780.518 1586.5,781.5C 1582.5,781.5 1578.5,781.5 1574.5,781.5C 1574.5,747.833 1574.5,714.167 1574.5,680.5 Z"/></g>
<g><path style="opacity:1" fill="#f8f9fa" d="M 1345.5,691.5 C 1349.15,694.479 1352.48,697.812 1355.5,701.5C 1335.6,724.065 1332.1,749.065 1345,776.5C 1348.26,781.346 1351.76,786.012 1355.5,790.5C 1352.52,793.985 1349.35,797.318 1346,800.5C 1323.43,775.993 1317.77,747.993 1329,716.5C 1333.15,707.2 1338.65,698.867 1345.5,691.5 Z"/></g>
<g><path style="opacity:1" fill="#f8f9fa" d="M 1677.5,691.5 C 1700.89,715.604 1706.72,743.604 1695,775.5C 1690.9,784.929 1685.23,793.262 1678,800.5C 1674.65,797.318 1671.48,793.985 1668.5,790.5C 1688.44,767.85 1691.94,742.85 1679,715.5C 1675.74,710.654 1672.24,705.988 1668.5,701.5C 1671.52,698.147 1674.52,694.813 1677.5,691.5 Z"/></g>
<g><path style="opacity:1" fill="none" d="M 1477.5,697.5 C 1477.5,725.5 1477.5,753.5 1477.5,781.5C 1472.64,781.819 1467.97,781.486 1463.5,780.5C 1467.83,780.5 1472.17,780.5 1476.5,780.5C 1476.17,752.662 1476.5,724.995 1477.5,697.5 Z"/></g>
<g><path style="opacity:1" fill="none" d="M 1546.5,697.5 C 1547.5,724.995 1547.83,752.662 1547.5,780.5C 1551.83,780.5 1556.17,780.5 1560.5,780.5C 1556.03,781.486 1551.36,781.819 1546.5,781.5C 1546.5,753.5 1546.5,725.5 1546.5,697.5 Z"/></g>
<g><path style="opacity:1" fill="#f8f9fa" d="M 1364.5,711.5 C 1368.75,714.079 1372.42,717.412 1375.5,721.5C 1365.18,732.543 1362.68,745.209 1368,759.5C 1369.52,763.852 1372.02,767.519 1375.5,770.5C 1372.5,774.167 1369.17,777.5 1365.5,780.5C 1351.35,764.638 1347.85,746.638 1355,726.5C 1358.02,721.331 1361.19,716.331 1364.5,711.5 Z"/></g>
<g><path style="opacity:1" fill="#f8f9fa" d="M 1657.5,711.5 C 1667.58,720.01 1672.58,731.01 1672.5,744.5C 1672.74,758.47 1668.07,770.47 1658.5,780.5C 1654.83,777.5 1651.5,774.167 1648.5,770.5C 1657.22,761.166 1660.39,750.166 1658,737.5C 1655.81,731.624 1652.98,726.124 1649.5,721C 1651.99,717.679 1654.65,714.512 1657.5,711.5 Z"/></g>
<g><path style="opacity:1" fill="none" d="M 1491.5,711.5 C 1495.97,710.514 1500.64,710.181 1505.5,710.5C 1505.5,715.5 1505.5,720.5 1505.5,725.5C 1500.5,725.5 1495.5,725.5 1490.5,725.5C 1490.18,720.637 1490.51,715.97 1491.5,711.5 Z"/></g>
<g><path style="opacity:1" fill="none" d="M 1491.5,711.5 C 1495.83,711.5 1500.17,711.5 1504.5,711.5C 1504.5,715.833 1504.5,720.167 1504.5,724.5C 1500.17,724.5 1495.83,724.5 1491.5,724.5C 1491.5,720.167 1491.5,715.833 1491.5,711.5 Z"/></g>
<g><path style="opacity:1" fill="none" d="M 1519.5,711.5 C 1519.5,715.833 1519.5,720.167 1519.5,724.5C 1523.83,724.5 1528.17,724.5 1532.5,724.5C 1532.5,720.167 1532.5,715.833 1532.5,711.5C 1533.49,715.97 1533.82,720.637 1533.5,725.5C 1528.5,725.5 1523.5,725.5 1518.5,725.5C 1518.18,720.637 1518.51,715.97 1519.5,711.5 Z"/></g>
<g><path style="opacity:1" fill="none" d="M 1519.5,711.5 C 1523.83,711.5 1528.17,711.5 1532.5,711.5C 1532.5,715.833 1532.5,720.167 1532.5,724.5C 1528.17,724.5 1523.83,724.5 1519.5,724.5C 1519.5,720.167 1519.5,715.833 1519.5,711.5 Z"/></g>
<g><path style="opacity:1" fill="none" d="M 1491.5,739.5 C 1495.83,739.5 1500.17,739.5 1504.5,739.5C 1504.5,743.833 1504.5,748.167 1504.5,752.5C 1500.17,752.5 1495.83,752.5 1491.5,752.5C 1491.5,748.167 1491.5,743.833 1491.5,739.5 Z"/></g>
<g><path style="opacity:1" fill="none" d="M 1491.5,739.5 C 1495.97,738.514 1500.64,738.181 1505.5,738.5C 1505.5,743.5 1505.5,748.5 1505.5,753.5C 1500.64,753.819 1495.97,753.486 1491.5,752.5C 1495.83,752.5 1500.17,752.5 1504.5,752.5C 1504.5,748.167 1504.5,743.833 1504.5,739.5C 1500.17,739.5 1495.83,739.5 1491.5,739.5 Z"/></g>
<g><path style="opacity:1" fill="none" d="M 1519.5,739.5 C 1523.83,739.5 1528.17,739.5 1532.5,739.5C 1532.5,743.833 1532.5,748.167 1532.5,752.5C 1528.17,752.5 1523.83,752.5 1519.5,752.5C 1519.5,748.167 1519.5,743.833 1519.5,739.5 Z"/></g>
<g><path style="opacity:1" fill="none" d="M 1491.5,780.5 C 1490.51,776.03 1490.18,771.363 1490.5,766.5C 1495.5,766.5 1500.5,766.5 1505.5,766.5C 1505.5,771.5 1505.5,776.5 1505.5,781.5C 1500.64,781.819 1495.97,781.486 1491.5,780.5 Z"/></g>
<g><path style="opacity:1" fill="none" d="M 1491.5,780.5 C 1491.5,776.167 1491.5,771.833 1491.5,767.5C 1495.83,767.5 1500.17,767.5 1504.5,767.5C 1504.5,771.833 1504.5,776.167 1504.5,780.5C 1500.17,780.5 1495.83,780.5 1491.5,780.5 Z"/></g>
<g><path style="opacity:1" fill="none" d="M 1532.5,780.5 C 1532.5,776.167 1532.5,771.833 1532.5,767.5C 1528.17,767.5 1523.83,767.5 1519.5,767.5C 1519.5,771.833 1519.5,776.167 1519.5,780.5C 1518.51,776.03 1518.18,771.363 1518.5,766.5C 1523.5,766.5 1528.5,766.5 1533.5,766.5C 1533.82,771.363 1533.49,776.03 1532.5,780.5 Z"/></g>
<g><path style="opacity:1" fill="none" d="M 1532.5,780.5 C 1528.17,780.5 1523.83,780.5 1519.5,780.5C 1519.5,776.167 1519.5,771.833 1519.5,767.5C 1523.83,767.5 1528.17,767.5 1532.5,767.5C 1532.5,771.833 1532.5,776.167 1532.5,780.5 Z"/></g>
<g><path style="opacity:1" fill="#f8f9fa" d="M 941.5,776.5 C 943.167,776.5 944.833,776.5 946.5,776.5C 946.167,800.176 946.5,823.843 947.5,847.5C 959.402,838.963 972.569,833.629 987,831.5C 1005.94,830.779 1016.61,839.779 1019,858.5C 1019.5,888.165 1019.67,917.831 1019.5,947.5C 1013.5,947.5 1007.5,947.5 1001.5,947.5C 1001.67,918.165 1001.5,888.831 1001,859.5C 998.819,851.4 993.486,847.4 985,847.5C 980.379,847.691 975.879,848.524 971.5,850C 962.932,853.865 954.765,858.365 947,863.5C 946.5,891.498 946.333,919.498 946.5,947.5C 940.5,947.5 934.5,947.5 928.5,947.5C 928.5,891.167 928.5,834.833 928.5,778.5C 933.076,778.562 937.409,777.895 941.5,776.5 Z"/></g>
<g><path style="opacity:1" fill="none" d="M 437.5,794.5 C 431.074,793.88 425.074,794.547 419.5,796.5C 418.596,795.791 418.263,794.791 418.5,793.5C 425.022,793.177 431.355,793.51 437.5,794.5 Z"/></g>
<g><path style="opacity:1" fill="none" d="M 531.5,795.5 C 523.167,794.167 514.833,794.167 506.5,795.5C 510.276,794.175 514.443,793.509 519,793.5C 523.557,793.509 527.724,794.175 531.5,795.5 Z"/></g>
<g><path style="opacity:1" fill="#f8f9fa" d="M 478.5,946.5 C 470.082,946.802 461.748,946.469 453.5,945.5C 442.01,895.874 430.677,846.207 419.5,796.5C 425.074,794.547 431.074,793.88 437.5,794.5C 447.341,838.529 457.508,882.529 468,926.5C 480.745,882.77 493.578,839.104 506.5,795.5C 514.833,794.167 523.167,794.167 531.5,795.5C 544.41,839.74 557.244,884.073 570,928.5C 579.669,883.826 589.335,839.159 599,794.5C 605.41,793.522 611.91,793.189 618.5,793.5C 606.619,844.788 594.952,896.122 583.5,947.5C 575.061,948.116 566.894,947.449 559,945.5C 545.888,901.158 532.554,856.825 519,812.5C 504.89,856.929 491.39,901.595 478.5,946.5 Z"/></g>
<g><path style="opacity:1" fill="none" d="M 1438.5,794.5 C 1487.5,794.333 1536.5,794.5 1585.5,795C 1592.94,796.776 1598.27,801.109 1601.5,808C 1541.83,808.667 1482.17,808.667 1422.5,808C 1425.92,801.067 1431.25,796.567 1438.5,794.5 Z"/></g>
<g><path style="opacity:1" fill="#f8f9fa" d="M 775.5,833.5 C 785.987,834.494 796.654,834.828 807.5,834.5C 807.5,839.167 807.5,843.833 807.5,848.5C 796.833,848.5 786.167,848.5 775.5,848.5C 775.333,872.836 775.5,897.169 776,921.5C 775.353,929.161 778.687,933.495 786,934.5C 792.472,933.506 798.638,931.506 804.5,928.5C 807.153,932.257 809.153,936.423 810.5,941C 808.046,943.733 805.046,945.733 801.5,947C 789.928,951.849 778.595,951.516 767.5,946C 761.651,940.473 758.485,933.639 758,925.5C 757.5,899.835 757.333,874.169 757.5,848.5C 750.5,848.5 743.5,848.5 736.5,848.5C 736.5,843.5 736.5,838.5 736.5,833.5C 743.5,833.5 750.5,833.5 757.5,833.5C 757.5,823.167 757.5,812.833 757.5,802.5C 763.456,801.506 769.456,800.839 775.5,800.5C 775.5,811.5 775.5,822.5 775.5,833.5 Z"/></g>
<g><path style="opacity:1" fill="none" d="M 1407.5,822.5 C 1416.83,822.5 1426.17,822.5 1435.5,822.5C 1435.5,827.5 1435.5,832.5 1435.5,837.5C 1432.5,837.5 1429.5,837.5 1426.5,837.5C 1428.95,836.527 1431.61,836.194 1434.5,836.5C 1434.5,832.167 1434.5,827.833 1434.5,823.5C 1425.32,823.827 1416.32,823.493 1407.5,822.5 Z"/></g>
<g><path style="opacity:1" fill="none" d="M 1574.5,836.5 C 1574.5,832.167 1574.5,827.833 1574.5,823.5C 1532.83,823.5 1491.17,823.5 1449.5,823.5C 1449.5,827.833 1449.5,832.167 1449.5,836.5C 1448.51,832.03 1448.18,827.363 1448.5,822.5C 1490.83,822.5 1533.17,822.5 1575.5,822.5C 1575.82,827.363 1575.49,832.03 1574.5,836.5 Z"/></g>
<g><path style="opacity:1" fill="none" d="M 1616.5,822.5 C 1607.68,823.493 1598.68,823.827 1589.5,823.5C 1589.5,827.833 1589.5,832.167 1589.5,836.5C 1592.39,836.194 1595.05,836.527 1597.5,837.5C 1594.5,837.5 1591.5,837.5 1588.5,837.5C 1588.5,832.5 1588.5,827.5 1588.5,822.5C 1597.83,822.5 1607.17,822.5 1616.5,822.5 Z"/></g>
<g><path style="opacity:1" fill="none" d="M 1574.5,836.5 C 1532.83,836.5 1491.17,836.5 1449.5,836.5C 1449.5,832.167 1449.5,827.833 1449.5,823.5C 1491.17,823.5 1532.83,823.5 1574.5,823.5C 1574.5,827.833 1574.5,832.167 1574.5,836.5 Z"/></g>
<g><path style="opacity:1" fill="#f8f9fa" d="M 692.5,881.5 C 694.833,881.5 697.167,881.5 699.5,881.5C 699.822,875.642 699.489,869.975 698.5,864.5C 697.664,855.825 692.997,850.325 684.5,848C 670.65,846.737 657.15,848.237 644,852.5C 642.573,848.141 641.406,843.641 640.5,839C 640.833,838.167 641.167,837.333 641.5,836.5C 658.639,832.19 675.972,831.023 693.5,833C 707.503,837.342 715.336,846.842 717,861.5C 717.226,890.181 717.726,918.847 718.5,947.5C 712.809,948.372 707.142,948.372 701.5,947.5C 700.806,943.81 699.972,940.143 699,936.5C 685.005,946.277 669.505,950.777 652.5,950C 635.625,947.423 627.292,937.59 627.5,920.5C 626.98,914.465 628.147,908.798 631,903.5C 643.628,889.609 659.461,882.443 678.5,882C 683.155,881.501 687.821,881.334 692.5,881.5 Z"/></g>
<g><path style="opacity:1" fill="#f8f9fa" d="M 869.5,831.5 C 880.608,831.597 891.608,832.763 902.5,835C 902.958,839.468 902.458,843.968 901,848.5C 900.481,849.516 899.647,850.182 898.5,850.5C 888.629,848.018 878.629,847.185 868.5,848C 852.681,853.439 844.515,864.605 844,881.5C 840.915,925.432 860.582,942.098 903,931.5C 904.012,935.883 905.179,940.216 906.5,944.5C 906.291,945.086 905.957,945.586 905.5,946C 845.298,960.645 818.464,937.145 825,875.5C 829.869,850.462 844.703,835.796 869.5,831.5 Z"/></g>
<g><path style="opacity:1" fill="none" d="M 775.5,833.5 C 786.5,833.5 797.5,833.5 808.5,833.5C 808.821,838.695 808.487,843.695 807.5,848.5C 807.5,843.833 807.5,839.167 807.5,834.5C 796.654,834.828 785.987,834.494 775.5,833.5 Z"/></g>
<g><path style="opacity:1" fill="none" d="M 1606.5,863.5 C 1596.01,864.494 1585.35,864.828 1574.5,864.5C 1574.18,869.363 1574.51,874.03 1575.5,878.5C 1586.84,878.333 1598.17,878.5 1609.5,879C 1611.29,886.934 1612.95,894.934 1614.5,903C 1614.17,903.833 1613.83,904.667 1613.5,905.5C 1607.83,902 1602.17,898.5 1596.5,895C 1588.14,891.718 1579.81,891.718 1571.5,895C 1566.17,898.333 1560.83,901.667 1555.5,905C 1550.14,906.944 1544.81,906.944 1539.5,905C 1528.82,894.497 1516.15,890.83 1501.5,894C 1494.63,898.267 1487.63,902.267 1480.5,906C 1476.83,906.667 1473.17,906.667 1469.5,906C 1464.33,902.915 1459.33,899.581 1454.5,896C 1446.38,892.383 1438.05,891.716 1429.5,894C 1422.83,897.331 1416.5,901.164 1410.5,905.5C 1410.17,904.667 1409.83,903.833 1409.5,903C 1411.13,895.191 1412.63,887.357 1414,879.5C 1462.76,878.503 1511.59,878.169 1560.5,878.5C 1561.49,874.03 1561.82,869.363 1561.5,864.5C 1513.33,864.832 1465.33,864.499 1417.5,863.5C 1418.49,857.005 1422.16,852.838 1428.5,851C 1484.17,850.333 1539.83,850.333 1595.5,851C 1601.87,852.864 1605.53,857.03 1606.5,863.5 Z"/></g>
<g><path style="opacity:1" fill="none" d="M 1417.5,863.5 C 1465.33,864.499 1513.33,864.832 1561.5,864.5C 1561.82,869.363 1561.49,874.03 1560.5,878.5C 1560.5,874.167 1560.5,869.833 1560.5,865.5C 1512.5,865.833 1464.5,865.5 1416.5,864.5C 1416.62,863.893 1416.96,863.56 1417.5,863.5 Z"/></g>
<g><path style="opacity:1" fill="none" d="M 1606.5,863.5 C 1607.04,863.56 1607.38,863.893 1607.5,864.5C 1596.85,865.499 1586.19,865.832 1575.5,865.5C 1575.5,869.833 1575.5,874.167 1575.5,878.5C 1574.51,874.03 1574.18,869.363 1574.5,864.5C 1585.35,864.828 1596.01,864.494 1606.5,863.5 Z"/></g>
<g><path style="opacity:1" fill="none" d="M 698.5,864.5 C 699.489,869.975 699.822,875.642 699.5,881.5C 697.167,881.5 694.833,881.5 692.5,881.5C 694.265,880.539 696.265,880.205 698.5,880.5C 698.5,875.167 698.5,869.833 698.5,864.5 Z"/></g>
<g><path style="opacity:1" fill="none" d="M 689.5,895.5 C 692.833,895.5 696.167,895.5 699.5,895.5C 699.831,904.192 699.498,912.859 698.5,921.5C 685.839,931.748 671.505,935.581 655.5,933C 648.927,930.193 645.927,925.193 646.5,918C 646.585,908.568 651.251,902.568 660.5,900C 670.18,897.607 679.847,896.107 689.5,895.5 Z"/></g>
<g><path style="opacity:1" fill="#f8f9fa" d="M 1295.5,934.5 C 1305.71,934.955 1314.38,938.788 1321.5,946C 1327.31,948.979 1333.31,949.312 1339.5,947C 1344.33,943.419 1349.33,940.085 1354.5,937C 1369.3,932.283 1382.3,935.283 1393.5,946C 1398.57,948.424 1403.9,949.091 1409.5,948C 1415.84,943.497 1422.5,939.497 1429.5,936C 1437.24,933.949 1444.91,934.283 1452.5,937C 1457.77,939.941 1462.77,943.274 1467.5,947C 1472.05,948.545 1476.71,948.879 1481.5,948C 1488.17,944 1494.83,940 1501.5,936C 1516.15,932.83 1528.82,936.497 1539.5,947C 1544.08,948.476 1548.74,948.81 1553.5,948C 1560.17,944 1566.83,940 1573.5,936C 1580.49,934.054 1587.49,934.054 1594.5,936C 1601.5,939.497 1608.16,943.497 1614.5,948C 1619.26,948.81 1623.92,948.476 1628.5,947C 1634.76,941.703 1641.76,937.703 1649.5,935C 1657.11,933.912 1664.45,934.912 1671.5,938C 1676.23,941.726 1681.23,945.059 1686.5,948C 1691.24,948.726 1695.91,948.393 1700.5,947C 1705.33,943.419 1710.33,940.085 1715.5,937C 1719.63,935.1 1723.97,934.267 1728.5,934.5C 1728.5,939.167 1728.5,943.833 1728.5,948.5C 1721.79,949.19 1716.12,952.024 1711.5,957C 1695.58,965.675 1680.91,964.008 1667.5,952C 1661.51,948.234 1655.17,947.567 1648.5,950C 1630.36,966.18 1612.03,966.514 1593.5,951C 1587.15,947.746 1580.82,947.746 1574.5,951C 1556.8,966.295 1539.14,966.295 1521.5,951C 1516.73,948.69 1511.73,948.023 1506.5,949C 1501.23,951.941 1496.23,955.274 1491.5,959C 1483.83,962.315 1475.83,963.315 1467.5,962C 1459.38,958.44 1451.71,954.107 1444.5,949C 1435.76,947.7 1428.43,950.367 1422.5,957C 1414.19,962.17 1405.19,963.836 1395.5,962C 1387.38,958.44 1379.71,954.107 1372.5,949C 1369.17,948.333 1365.83,948.333 1362.5,949C 1355.29,954.107 1347.62,958.44 1339.5,962C 1326.65,964.494 1315.65,961.161 1306.5,952C 1303.07,950.06 1299.41,948.894 1295.5,948.5C 1295.5,943.833 1295.5,939.167 1295.5,934.5 Z"/></g>
<g><path style="opacity:1" fill="none" d="M 453.5,945.5 C 461.748,946.469 470.082,946.802 478.5,946.5C 474.514,947.166 470.347,947.499 466,947.5C 461.443,947.491 457.276,946.825 453.5,945.5 Z"/></g>
</g></svg>