<?xml version="1.0" encoding="UTF-8"?>
<svg xmlns="http://www.w3.org/2000/svg" xmlns:xlink="http://www.w3.org/1999/xlink" width="42px" height="42px" viewBox="0 0 42 42" version="1.1">
<g id="surface1">
<path style=" stroke:none;fill-rule:nonzero;fill:rgb(0%,0%,0%);fill-opacity:1;" d="M 16.394531 10.078125 L 26.171875 10.078125 L 26.171875 36.3125 L 16.394531 36.3125 Z M 16.394531 10.078125 "/>
<path style=" stroke:none;fill-rule:nonzero;fill:rgb(100%,88.235295%,1.568628%);fill-opacity:1;" d="M 3.328125 39.980469 L 38.691406 39.980469 C 41.164062 39.980469 42.75 37.378906 41.636719 35.175781 L 23.953125 3.84375 C 22.734375 1.40625 19.25 1.40625 18.027344 3.84375 L 0.34375 35.175781 C -0.738281 37.378906 0.851562 39.984375 3.328125 39.984375 Z M 23.785156 32.703125 C 23.785156 34.328125 22.601562 35.582031 20.90625 35.582031 C 19.210938 35.582031 18.027344 34.328125 18.027344 32.703125 L 18.027344 32.636719 C 18.027344 31.007812 19.210938 29.757812 20.90625 29.757812 C 22.601562 29.757812 23.785156 31.007812 23.785156 32.636719 Z M 19.347656 11.535156 L 22.667969 11.535156 C 23.578125 11.535156 24.125 12.3125 24.023438 13.292969 L 22.566406 26.03125 C 22.464844 26.941406 21.851562 27.523438 21.007812 27.523438 C 20.160156 27.523438 19.550781 26.941406 19.449219 26.03125 L 17.992188 13.292969 C 17.890625 12.3125 18.433594 11.535156 19.347656 11.535156 Z M 19.347656 11.535156 "/>
</g>
</svg>
