<?xml version="1.0" encoding="UTF-8"?>
<svg xmlns="http://www.w3.org/2000/svg" xmlns:xlink="http://www.w3.org/1999/xlink" width="42px" height="42px" viewBox="0 0 42 42" version="1.1">
<g id="surface1">
<path style="fill-rule:nonzero;fill:rgb(100%,88.235295%,1.568628%);fill-opacity:1;stroke-width:45;stroke-linecap:butt;stroke-linejoin:miter;stroke:rgb(60.784316%,54.901963%,5.490196%);stroke-opacity:1;stroke-miterlimit:10;" d="M 117.782738 700.14881 L 682.217262 700.14881 C 721.72619 700.14881 747.098214 658.482143 729.241071 623.363095 L 447.02381 123.28869 C 427.604167 84.375 371.875 84.375 352.455357 123.28869 L 70.238095 623.363095 C 52.901786 658.482143 78.348214 700.14881 117.782738 700.14881 Z M 444.345238 583.928571 C 444.345238 609.821429 425.446429 629.83631 398.363095 629.83631 C 371.354167 629.83631 352.455357 609.821429 352.455357 583.928571 L 352.455357 582.8125 C 352.455357 556.845238 371.354167 536.904762 398.363095 536.904762 C 425.446429 536.904762 444.345238 556.845238 444.345238 582.8125 Z M 373.511905 245.982143 L 426.488095 245.982143 C 441.071429 245.982143 449.776786 258.407738 448.139881 274.107143 L 424.85119 477.380952 C 423.214286 491.964286 413.541667 501.190476 400 501.190476 C 386.458333 501.190476 376.785714 491.964286 375.14881 477.380952 L 351.860119 274.107143 C 350.223214 258.407738 358.928571 245.982143 373.511905 245.982143 Z M 373.511905 245.982143 " transform="matrix(0.0525,0,0,0.0525,0,0)"/>
<path style=" stroke:none;fill-rule:nonzero;fill:rgb(0%,0%,0%);fill-opacity:1;" d="M 17.140625 11.6875 L 25.332031 11.6875 L 25.332031 33.667969 L 17.140625 33.667969 Z M 17.140625 11.6875 "/>
<path style="fill-rule:nonzero;fill:rgb(100%,88.235295%,1.568628%);fill-opacity:1;stroke-width:0.25;stroke-linecap:butt;stroke-linejoin:miter;stroke:rgb(11.372549%,11.372549%,10.588235%);stroke-opacity:1;stroke-miterlimit:10;" d="M 117.931548 699.925595 L 682.366071 699.925595 C 721.800595 699.925595 747.247024 658.333333 729.389881 623.139881 L 447.172619 123.065476 C 427.678571 84.151786 372.02381 84.151786 352.529762 123.065476 L 70.3125 623.139881 C 53.050595 658.333333 78.422619 699.925595 117.931548 699.925595 Z M 444.494048 583.705357 C 444.494048 609.672619 425.520833 629.613095 398.511905 629.613095 C 371.502976 629.613095 352.604167 609.672619 352.604167 583.705357 L 352.604167 582.589286 C 352.604167 556.696429 371.502976 536.681548 398.511905 536.681548 C 425.520833 536.681548 444.494048 556.696429 444.494048 582.589286 Z M 373.660714 245.833333 L 426.636905 245.833333 C 441.220238 245.833333 449.85119 258.258929 448.214286 273.883929 L 425 477.232143 C 423.363095 491.815476 413.616071 500.967262 400.14881 500.967262 C 386.607143 500.967262 376.860119 491.815476 375.223214 477.232143 L 352.008929 273.883929 C 350.372024 258.258929 359.077381 245.833333 373.660714 245.833333 Z M 373.660714 245.833333 " transform="matrix(0.0525,0,0,0.0525,0,0)"/>
</g>
</svg>
